HIERARCHY
ROOT Hips
{
	OFFSET 0.000000 0.000000 0.000000
	CHANNELS 6 Xposition Yposition Zposition Xrotation Yrotation Zrotation
	JOINT LeftUpLeg_virtual
	{
		OFFSET 0.000000 0.000000 0.000000
		CHANNELS 3 Xrotation Yrotation Zrotation
		JOINT LeftUpLeg
		{
			OFFSET 13.026900 -6.336304 -1.092800
			CHANNELS 3 Xrotation Yrotation Zrotation
			JOINT LeftLeg
			{
				OFFSET 0.524474 -46.096886 9.782700
				CHANNELS 3 Xrotation Yrotation Zrotation
				JOINT LeftFoot
				{
					OFFSET -0.524474 -53.427422 -12.948200
					CHANNELS 3 Xrotation Yrotation Zrotation
					JOINT LeftToeBase
					{
						OFFSET 0.192200 -14.009700 16.364100
						CHANNELS 3 Xrotation Yrotation Zrotation
						JOINT LeftToe_End
						{
							OFFSET -1.784700 -0.561700 9.474800
							CHANNELS 3 Xrotation Yrotation Zrotation
							End Site
							{
								OFFSET 0 0 0
							}
						}
					}
				}
			}
		}
	}
	JOINT RightUpLeg_virtual
	{
		OFFSET 0.000000 0.000000 0.000000
		CHANNELS 3 Xrotation Yrotation Zrotation
		JOINT RightUpLeg
		{
			OFFSET -12.883000 -6.336304 -1.092800
			CHANNELS 3 Xrotation Yrotation Zrotation
			JOINT RightLeg
			{
				OFFSET -0.524587 -46.096825 9.782800
				CHANNELS 3 Xrotation Yrotation Zrotation
				JOINT RightFoot
				{
					OFFSET 0.524587 -53.427383 -12.948300
					CHANNELS 3 Xrotation Yrotation Zrotation
					JOINT RightToeBase
					{
						OFFSET -0.192200 -14.009700 16.364100
						CHANNELS 3 Xrotation Yrotation Zrotation
						JOINT RightToe_End
						{
							OFFSET 1.784700 -0.561700 9.474800
							CHANNELS 3 Xrotation Yrotation Zrotation
							End Site
							{
								OFFSET 0 0 0
							}
						}
					}
				}
			}
		}
	}
	JOINT Spine_virtual
	{
		OFFSET 0.000000 0.000000 0.000000
		CHANNELS 3 Xrotation Yrotation Zrotation
		JOINT Spine
		{
			OFFSET 0.072000 7.257294 -0.789700
			CHANNELS 3 Xrotation Yrotation Zrotation
			JOINT Spine1
			{
				OFFSET 0.000000 12.508769 -0.658067
				CHANNELS 3 Xrotation Yrotation Zrotation
				JOINT Spine1_split
				{
					OFFSET 0.000000 12.508769 -0.658067
					CHANNELS 3 Xrotation Yrotation Zrotation
					JOINT Spine2
					{
						OFFSET 0.000000 12.508769 -0.658067
						CHANNELS 3 Xrotation Yrotation Zrotation
						JOINT Neck_virtual
						{
							OFFSET 0.000000 0.000000 0.000000
							CHANNELS 3 Xrotation Yrotation Zrotation
							JOINT Neck
							{
								OFFSET 0.000000 14.033295 7.520400
								CHANNELS 3 Xrotation Yrotation Zrotation
								JOINT Head
								{
									OFFSET 0.000000 8.198502 5.703100
									CHANNELS 3 Xrotation Yrotation Zrotation
									JOINT HeadTop_End
									{
										OFFSET 0.000000 17.760803 13.332701
										CHANNELS 3 Xrotation Yrotation Zrotation
										End Site
										{
											OFFSET 0 0 0
										}
									}
								}
							}
						}
						JOINT LeftShoulder_virtual
						{
							OFFSET 0.000000 0.000000 0.000000
							CHANNELS 3 Xrotation Yrotation Zrotation
							JOINT LeftShoulder
							{
								OFFSET 6.292450 5.785301 -0.669000
								CHANNELS 3 Xrotation Yrotation Zrotation
								JOINT LeftShoulder_split
								{
									OFFSET 6.292450 5.785301 -0.669000
									CHANNELS 3 Xrotation Yrotation Zrotation
									JOINT LeftArm
									{
										OFFSET 13.907140 -6.093903 1.965100
										CHANNELS 3 Xrotation Yrotation Zrotation
										JOINT LeftForeArm
										{
											OFFSET 34.140198 0.000000 0.000000
											CHANNELS 3 Xrotation Yrotation Zrotation
											JOINT LeftHand
											{
												OFFSET 40.960209 0.000000 0.000000
												CHANNELS 3 Xrotation Yrotation Zrotation
												End Site
												{
													OFFSET 0 0 0
												}
											}
										}
									}
								}
							}
						}
						JOINT RightShoulder_virtual
						{
							OFFSET 0.000000 0.000000 0.000000
							CHANNELS 3 Xrotation Yrotation Zrotation
							JOINT RightShoulder
							{
								OFFSET -6.292450 5.785301 -0.669000
								CHANNELS 3 Xrotation Yrotation Zrotation
								JOINT RightShoulder_split
								{
									OFFSET -6.292450 5.785301 -0.669000
									CHANNELS 3 Xrotation Yrotation Zrotation
									JOINT RightArm
									{
										OFFSET -13.907140 -6.093903 1.965100
										CHANNELS 3 Xrotation Yrotation Zrotation
										JOINT RightForeArm
										{
											OFFSET -34.140198 0.000000 0.000000
											CHANNELS 3 Xrotation Yrotation Zrotation
											JOINT RightHand
											{
												OFFSET -40.960209 0.000000 0.000000
												CHANNELS 3 Xrotation Yrotation Zrotation
												End Site
												{
													OFFSET 0 0 0
												}
											}
										}
									}
								}
							}
						}
					}
				}
			}
		}
	}
}
MOTION
Frames: 5
Frame Time: 0.03333333
-19.490864 93.061661 -2.362347 0.000000 0.000000 0.000000 -7.664980 -47.686738 2.082379 -23.841173 10.687194 22.275948 47.946302 -7.027596 10.826196 -20.482716 -11.168214 -24.587716 -4.924417 0.069723 0.096684 0.000000 0.000000 0.000000 -9.316700 -43.521853 2.817190 -28.107649 -5.190106 -35.044635 49.643526 -6.051820 -10.004695 -8.420036 -6.334586 26.052341 -3.419137 0.650162 0.134119 0.000000 0.000000 0.000000 -6.371465 -45.259968 3.398437 10.286357 7.824368 -1.884680 2.256577 0.604657 -2.316425 0.443713 -1.429320 0.817167 0.000000 0.000000 0.000000 2.647756 0.427101 -2.018713 0.818647 13.558327 1.681130 11.152831 18.130718 0.201047 0.000000 0.000000 0.000000 3.174027 0.294557 -2.331199 2.022177 -2.327800 -13.153265 -2.506752 -3.083720 0.190348 -68.392262 -0.704596 -39.948964 178.717295 -75.535656 -179.777464 0.000000 0.000000 0.000000 3.705081 0.547638 -2.063010 3.275637 10.947284 -12.915190 -0.941292 0.413905 1.596415 -66.050907 20.084494 88.037068 -22.075895 85.487249 19.618649 0.000000 0.000000 0.000000 
-21.281883 93.477112 -2.721836 0.000000 0.000000 0.000000 -7.936379 -49.316134 2.144716 -22.460623 9.864999 22.412458 47.389867 -6.421461 11.227551 -17.678992 -10.554349 -24.012701 -5.627985 0.115861 -0.434736 0.000000 0.000000 0.000000 -9.770598 -44.579654 2.875713 -28.194411 -5.983800 -35.007291 50.628149 -6.652840 -9.802554 -10.715095 -6.075678 25.055400 -2.303329 0.768122 0.370590 0.000000 0.000000 0.000000 -6.942912 -46.226048 3.483719 10.325332 7.472053 -2.167234 2.252816 0.125083 -2.409873 0.448431 -0.932279 1.023169 0.000000 0.000000 0.000000 2.588285 -0.117080 -2.093112 1.340594 13.713279 1.590237 11.424346 18.553096 -0.517842 0.000000 0.000000 0.000000 3.128421 -0.224409 -2.468852 2.111229 -0.990222 -12.901553 -2.282439 -3.026160 0.553377 -68.093106 -1.144609 -41.460952 178.847656 -74.658858 -179.452907 0.000000 0.000000 0.000000 3.608808 0.046208 -2.131593 3.142793 10.091305 -13.652307 -0.532217 0.477569 1.156676 -67.009360 18.701966 88.297872 -25.461313 85.754944 22.847584 0.000000 0.000000 0.000000 
-22.927773 94.700058 -2.798969 0.000000 0.000000 0.000000 -7.922426 -50.103160 2.321948 -21.478616 9.287209 22.285166 46.701094 -5.818314 11.217225 -14.409554 -10.346762 -23.136552 -6.863599 0.152995 -0.880105 0.000000 0.000000 0.000000 -10.034467 -45.362899 2.972516 -28.024977 -6.913436 -34.562233 50.798132 -7.329712 -9.567355 -12.311757 -5.761371 23.952970 -1.601200 0.874350 0.510401 0.000000 0.000000 0.000000 -6.976597 -46.860897 3.653099 10.134330 7.084773 -2.300629 2.159493 -0.382040 -2.415017 0.437183 -0.498645 0.977336 0.000000 0.000000 0.000000 2.486558 -0.631989 -2.091346 1.735784 13.797379 1.694623 11.477236 19.051039 -1.390841 0.000000 0.000000 0.000000 3.031010 -0.717574 -2.512540 2.142254 -0.316123 -12.647117 -1.909178 -2.476629 0.593077 -66.666594 -1.596813 -43.137190 179.146518 -73.921471 -179.101576 0.000000 0.000000 0.000000 3.451675 -0.431398 -2.111596 3.013983 9.115526 -13.923772 -0.226102 0.473534 0.704118 -67.899170 17.109757 88.730223 -38.920050 87.085568 36.266993 0.000000 0.000000 0.000000 
-24.346750 96.305519 -2.691322 0.000000 0.000000 0.000000 -7.722372 -50.082403 2.548209 -21.416415 9.249157 21.904743 46.346464 -5.314834 10.679149 -11.573341 -10.656465 -22.159973 -7.512989 0.183987 -1.230254 0.000000 0.000000 0.000000 -10.076698 -45.865844 3.044156 -27.501997 -7.811453 -33.766751 49.864687 -7.786162 -9.471749 -12.783354 -5.241220 23.400399 -1.859060 0.928446 0.557862 0.000000 0.000000 0.000000 -6.615801 -47.177353 3.871985 9.792276 6.801978 -2.246732 2.009546 -0.762511 -2.354213 0.438376 -0.204767 0.872938 0.000000 0.000000 0.000000 2.399372 -0.961902 -2.048391 1.900214 13.773114 1.941592 11.183003 19.489501 -2.282703 0.000000 0.000000 0.000000 2.907773 -1.036381 -2.469411 2.101071 -0.323661 -12.530930 -1.488222 -1.666515 0.258925 -63.981729 -2.060955 -44.725947 179.551726 -73.403865 -178.789641 0.000000 0.000000 0.000000 3.305324 -0.746223 -2.035099 2.895361 8.139945 -13.580883 -0.093110 0.252824 0.338673 -67.807475 15.981026 89.112563 -106.616295 88.257068 104.078778 0.000000 0.000000 0.000000 
-25.504555 97.883156 -2.459267 0.000000 0.000000 0.000000 -7.509776 -49.519309 2.719999 -22.667094 9.673994 21.388377 46.985585 -5.201854 9.755261 -9.452143 -11.621946 -21.596256 -6.662162 0.174136 -1.439950 0.000000 0.000000 0.000000 -9.829346 -46.058660 3.117318 -26.488445 -8.779000 -32.522113 48.093913 -8.196849 -9.546119 -12.685962 -4.877430 22.982168 -2.348640 0.918060 0.543709 0.000000 0.000000 0.000000 -6.022750 -47.192335 4.086097 9.431626 6.693599 -2.034284 1.821451 -0.896836 -2.231388 0.345166 -0.082017 0.744083 0.000000 0.000000 0.000000 2.346422 -1.018001 -1.983691 1.734674 13.600154 2.223547 10.622021 19.783778 -3.134414 0.000000 0.000000 0.000000 2.783568 -1.090409 -2.336582 2.011079 -0.888277 -12.582046 -1.202590 -0.808114 -0.088637 -60.139863 -2.310625 -45.924577 -179.798214 -73.136901 -178.310845 0.000000 0.000000 0.000000 3.210224 -0.805851 -1.897054 2.819861 7.348380 -12.645772 -0.130344 -0.021325 0.148141 -66.347153 15.781161 89.270675 -161.492965 85.795461 159.231599 0.000000 0.000000 0.000000 
